<?xml version="1.0" encoding="UTF-8"?>
<svg id="Layer_1" xmlns="http://www.w3.org/2000/svg" version="1.1" viewBox="0 0 256 256">
  <!-- Generator: Adobe Illustrator 29.6.1, SVG Export Plug-In . SVG Version: 2.1.1 Build 9)  -->
  <path d="M104.35681,64.39795c13.55118-1.72887,9.89921,15.33963,10.73547,23.04401.26633,2.45369,1.646,4.06133,4.15246,4.37298,16.39515,2.03856,30.7429-2.89328,46.83692,4.74198,37.84157,17.95263,34.2724,73.36708-5.45534,86.34622-10.32033,3.37167-27.60284,2.98792-38.64258,2.51025-4.81515-.20834-10.36857-.91304-12.19857-6.13113-2.25021-6.41629,2.95255-11.07265,9.01366-11.56461,9.43333-.76569,19.13239.35973,28.56581-.20755,26.11737-1.57059,37.23097-33.78011,17.36415-50.84438-12.41962-10.6676-29.90051-5.83513-44.87532-6.93211-2.79857.24108-4.43044,1.53397-4.76495,4.3999-.74711,6.4008,2.01187,18.00237-4.64367,21.99832-2.71625,1.63083-5.73452,1.57198-8.59003.35437-12.50878-8.26532-25.28733-16.55633-37.27939-25.59573-4.05756-3.05851-7.94652-6.02623-6.96175-11.81777.76997-4.52825,6.40187-7.89094,9.85523-10.39266,9.47371-6.86303,19.57036-14.14616,29.32636-20.54746,2.18437-1.43325,4.92502-3.3983,7.56152-3.73467v.00005Z" fill="#fff"/>
</svg>