<?xml version="1.0" encoding="UTF-8"?>
<svg id="Layer_1" xmlns="http://www.w3.org/2000/svg" version="1.1" viewBox="0 0 256 256">
  <!-- Generator: Adobe Illustrator 29.6.1, SVG Export Plug-In . SVG Version: 2.1.1 Build 9)  -->
  <path d="M110.7994,52.68375c10.46383-.54213,23.35316-.52549,33.83468-.07153,8.2103.35559,12.94769,2.46565,13.5233,11.41361.30061,4.6732-1.78651,12.33632,4.78992,12.90037,8.71375.74736,18.61385-.40149,27.51102-.01647,10.00488.43295,13.10107,3.52602,13.53413,13.53414v89.74784c-.43414,10.0341-3.50557,13.10019-13.53413,13.53413h-124.91528c-10.2115-.44182-13.11966-3.62027-13.5355-13.74591l.00137-89.53607c.43295-10.00662,3.52789-13.10117,13.53414-13.53414,8.89717-.38498,18.79729.76384,27.51102.01647,6.53397-.56041,4.50242-8.05823,4.77898-12.69817.52372-8.7866,4.7749-11.11988,12.96636-11.54428ZM74.56635,94.88474c-3.03508.32731-4.32446,1.6951-4.6418,4.73619l-.01308,70.98051c.22617,3.25604,1.45223,4.90193,4.80864,5.20876,6.75779-.34424,13.97731.46925,20.6795.01218,1.30493-.089,4.6304-.3548,4.32427-2.19199-.25603-1.5365-5.1697-5.7363-6.46737-7.19173-15.77462-17.69205-15.76777-44.55677,0-62.24174,1.42866-1.60237,5.7626-5.17083,6.34276-6.87665.73641-2.16523-2.69765-2.39094-4.2106-2.4961-6.73486-.46813-14.03178.29284-20.82231.06059v-.00002ZM160.24792,94.88564c-1.26668.10826-4.27505.30475-3.97043,2.11955.25845,1.53971,5.17458,5.74173,6.46738,7.19172,15.77361,17.69153,15.76883,44.55559,0,62.24174-1.42735,1.60091-5.76431,5.17305-6.34276,6.87665-.73006,2.1501,2.68259,2.40369,4.19965,2.50705,5.64124.3844,14.87131.43835,20.47745-.00107,3.2961-.25838,4.75024-1.71609,5.0087-5.0087l.00198-70.77846c-.23933-3.44666-1.54419-4.91882-5.02164-5.2089-5.53581-.46178-15.27272-.41371-20.82034.06042h.00002ZM125.08073,106.60837c-21.86566,1.84614-33.07146,27.65176-20.59222,45.40121,13.59771,19.34026,44.07727,14.61513,50.95706-8.00288,6.10303-20.0643-9.5912-39.15228-30.36485-37.39833Z" fill="#fff"/>
</svg>