<?xml version="1.0" encoding="UTF-8"?>
<svg id="Layer_1" xmlns="http://www.w3.org/2000/svg" version="1.1" viewBox="0 0 256 256">
  <!-- Generator: Adobe Illustrator 29.6.1, SVG Export Plug-In . SVG Version: 2.1.1 Build 9)  -->
  <path d="M142.45537,156.67606c-1.12434-.00554-1.94429.8118-2.60486,1.63159-8.46213,16.38705-15.17576,33.68015-23.38692,50.18553-1.86661,3.75211-3.62077,7.89568-7.99333,9.24788-4.30204,1.33038-8.45769-1.02682-10.48331-4.87729-17.87308-51.93527-35.42041-104.10123-52.05548-156.43689-.84329-6.89148,4.02222-11.51776,10.84529-10.36616,52.19914,16.69613,104.29236,34.08723,156.13547,51.87777,3.85046,2.02562,6.20769,6.18128,4.87729,10.48331-1.35323,4.37585-5.49532,6.12383-9.24788,7.9933-15.53423,7.73892-32.23994,14.07195-47.62433,21.99225-2.14143,1.10246-5.28027,2.468-3.91023,5.43129.40958.88586,1.57841,2.25378,2.25545,3.01421,6.85739,7.7019,15.55458,14.57681,22.31441,22.30507,3.77457,4.31532,5.06538,10.32655-.01224,14.28391-4.3902,3.4216-9.70662.66174-13.26259-2.51607-7.72052-6.89946-14.67133-15.77805-22.45578-22.48-.81305-.7-2.29797-1.76431-3.39095-1.7697h-.00002ZM180.8223,106.08619c-.35976-.29397-.95496-.50721-1.36758-.75686-34.91083-11.94756-69.99754-23.46681-105.04489-35.01301-2.97196-.77321-4.80946-.35261-4.34446,3.14077,11.56301,35.6003,23.22125,71.24129,35.6292,106.5517.90765,2.10706,2.66034,2.20784,3.90395.30035,7.2104-13.36771,12.46593-27.77612,19.36263-41.29323,3.1908-6.25375,4.86372-7.40414,11.00748-10.48076,13.45554-6.73813,27.70331-12.02896,40.84897-19.34903,1.19193-.97364,1.20409-2.11984.00471-3.09992l-.00002-.00002Z" fill="#fff"/>
</svg>